<?xml version="1.0" encoding="UTF-8" standalone="no"?>
<svg
   xmlns:dc="http://purl.org/dc/elements/1.1/"
   xmlns:cc="http://creativecommons.org/ns#"
   xmlns:rdf="http://www.w3.org/1999/02/22-rdf-syntax-ns#"
   xmlns:svg="http://www.w3.org/2000/svg"
   xmlns="http://www.w3.org/2000/svg"
   xmlns:sodipodi="http://sodipodi.sourceforge.net/DTD/sodipodi-0.dtd"
   xmlns:inkscape="http://www.inkscape.org/namespaces/inkscape"
   width="210mm"
   height="297mm"
   viewBox="0 0 210 297"
   version="1.1"
   id="svg915"
   inkscape:version="1.0 (4035a4f, 2020-05-01)"
   sodipodi:docname="logo.svg">
  <defs
     id="defs909" />
  <sodipodi:namedview
     id="base"
     pagecolor="#ffffff"
     bordercolor="#666666"
     borderopacity="1.0"
     inkscape:pageopacity="0.0"
     inkscape:pageshadow="2"
     inkscape:zoom="1.979899"
     inkscape:cx="365.27652"
     inkscape:cy="589.84681"
     inkscape:document-units="mm"
     inkscape:current-layer="layer1"
     inkscape:document-rotation="0"
     showgrid="false"
     inkscape:window-width="1669"
     inkscape:window-height="1174"
     inkscape:window-x="0"
     inkscape:window-y="23"
     inkscape:window-maximized="0" />
  <metadata
     id="metadata912">
    <rdf:RDF>
      <cc:Work
         rdf:about="">
        <dc:format>image/svg+xml</dc:format>
        <dc:type
           rdf:resource="http://purl.org/dc/dcmitype/StillImage" />
        <dc:title />
      </cc:Work>
    </rdf:RDF>
  </metadata>
  <g
     inkscape:groupmode="layer"
     id="layer2"
     inkscape:label="PCB Background"
     sodipodi:insensitive="true"
     style="display:inline">
    <rect
       style="fill:#008000;stroke-width:0.499999;stroke-linecap:round"
       id="rect1542"
       width="184.95052"
       height="220.23009"
       x="17.105249"
       y="49.712132"
       rx="7.1054384e-15"
       ry="7.1054384e-15" />
  </g>
  <g
     inkscape:label="Layer 1"
     inkscape:groupmode="layer"
     id="layer1">
    <g
       id="g1682"
       style="stroke-width:1.5;stroke-miterlimit:4;stroke-dasharray:none"
       inkscape:export-xdpi="96"
       inkscape:export-ydpi="96">
      <path
         id="path1688"
         style="display:inline;fill:none;fill-rule:evenodd;stroke:#ffffff;stroke-width:1.5;stroke-linejoin:round;stroke-miterlimit:4;stroke-dasharray:none"
         d="m 97.278245,141.96299 c 0,0 0,0 0,0" />
      <path
         id="path1727"
         style="display:inline;fill:#ffffff;fill-opacity:1;stroke:#ffffff;stroke-width:1.5;stroke-linecap:butt;stroke-linejoin:round;stroke-miterlimit:4;stroke-dasharray:none;stroke-opacity:1"
         d="m 126.70159,182.44743 c -3.96189,3.47701 -8.50978,6.35885 -13.52547,8.44419 -5.05443,2.10144 -10.4412,3.38471 -15.897865,3.80929 l -1e-5,-52.73792 29.423345,40.48444"
         sodipodi:nodetypes="csccc" />
      <path
         id="path1745"
         style="display:inline;fill:none;stroke:#ffffff;stroke-width:1.5;stroke-linecap:butt;stroke-linejoin:round;stroke-miterlimit:4;stroke-dasharray:none;stroke-opacity:1"
         d="m 126.70159,182.44743 -29.423345,-40.48444 45.087295,14.6485 m 0,0 c -2.36674,9.89032 -7.88614,19.01003 -15.66395,25.83594" />
      <path
         id="path1729"
         style="display:inline;fill:#ffffff;fill-opacity:1;stroke:#ffffff;stroke-width:1.5;stroke-linecap:butt;stroke-linejoin:round;stroke-miterlimit:4;stroke-dasharray:none;stroke-opacity:1"
         d="m 142.36554,156.61149 -45.087295,-14.6485 42.721825,-13.88118 m 0,1e-5 c 0,0 0,0 0,0 4.03472,9.3531 4.57927,19.2785 2.36547,28.52967" />
      <path
         id="path1751"
         style="display:inline;fill:none;fill-opacity:1;stroke:#ffffff;stroke-width:1.5;stroke-linecap:butt;stroke-linejoin:round;stroke-miterlimit:4;stroke-dasharray:none;stroke-opacity:1"
         d="m 140.00007,128.08181 -42.721825,13.88118 24.738685,-34.05868 m 1e-5,0 c 7.79765,4.54334 14.26222,11.55189 17.98313,20.17751" />
      <path
         id="path1731"
         style="display:inline;fill:#ffffff;fill-opacity:1;stroke:#ffffff;stroke-width:1.5;stroke-linecap:butt;stroke-linejoin:round;stroke-miterlimit:4;stroke-dasharray:none;stroke-opacity:1"
         d="m 122.01693,107.90431 -24.738685,34.05868 -4e-5,-39.59372 m 0,0 c 8.643015,-0.89111 17.297815,1.19956 24.738735,5.53504" />
      <path
         id="path1733"
         style="display:inline;fill:none;stroke:#ffffff;stroke-width:1.5;stroke-linecap:butt;stroke-linejoin:round;stroke-miterlimit:4;stroke-dasharray:none;stroke-opacity:1"
         d="m 75.629522,112.17796 21.648723,29.78503 -4e-5,-39.59372 m -21.648683,9.80869 c 2.857624,-2.68994 6.165807,-4.94455 9.825212,-6.60399 3.858641,-1.7498 7.839805,-2.79397 11.823471,-3.2047" />
      <path
         id="path1735"
         style="display:inline;fill:#ffffff;fill-opacity:1;stroke:#ffffff;stroke-width:1.5;stroke-linecap:butt;stroke-linejoin:round;stroke-miterlimit:4;stroke-dasharray:none;stroke-opacity:1"
         d="m 64.841817,131.42399 32.436428,10.539 -21.648723,-29.78503 M 64.841817,131.424 c 1.451226,-7.26904 5.283737,-14.06503 10.787705,-19.24604" />
      <path
         id="path1737"
         style="display:inline;fill:none;stroke:#ffffff;stroke-width:1.5;stroke-linecap:butt;stroke-linejoin:round;stroke-miterlimit:4;stroke-dasharray:none;stroke-opacity:1"
         d="m 67.376985,151.6785 29.90126,-9.71551 -32.436428,-10.539 m 2.535168,20.25452 c -3.198074,-6.56494 -3.862213,-13.6075 -2.535168,-20.25451" />
      <path
         id="path1739"
         style="display:inline;fill:#ffffff;fill-opacity:1;stroke:#ffffff;stroke-width:1.5;stroke-linecap:butt;stroke-linejoin:round;stroke-miterlimit:4;stroke-dasharray:none;stroke-opacity:1"
         d="m 80.514087,165.04202 16.764158,-23.07903 -29.90126,9.71551 m 13.137102,13.36352 c -5.574879,-2.87294 -10.309809,-7.55972 -13.137102,-13.36351 0,0 0,0 0,0" />
      <path
         style="display:inline;fill:none;fill-opacity:1;stroke:#ffffff;stroke-width:1.5;stroke-linecap:butt;stroke-linejoin:round;stroke-miterlimit:4;stroke-dasharray:none;stroke-opacity:1"
         d="m 110.73459,160.47555 c -1.68943,1.88066 -3.69045,3.49002 -5.91377,4.70109 -2.43867,1.32837 -4.977205,2.18977 -7.540715,2.63307"
         id="path1827" />
      <path
         id="path1797"
         style="display:inline;fill:none;fill-opacity:1;stroke:#ffffff;stroke-width:1.5;stroke-linecap:butt;stroke-linejoin:round;stroke-miterlimit:4;stroke-dasharray:none;stroke-opacity:1"
         d="m 110.73459,160.47555 -13.456345,-18.51256 19.058975,6.18726 m 0,1e-5 c -0.44664,4.49917 -2.49876,8.8701 -5.60263,12.32529" />
      <path
         id="path1801"
         style="display:inline;fill:#ffffff;fill-opacity:1;stroke:#ffffff;stroke-width:1.5;stroke-linecap:butt;stroke-linejoin:round;stroke-miterlimit:4;stroke-dasharray:none;stroke-opacity:1"
         d="m 116.33722,148.15025 -19.058975,-6.18726 16.247375,-5.2791 m 2.5e-4,3.9e-4 c 2.38091,3.57721 3.19815,7.56968 2.81135,11.46598" />
      <path
         id="path1805"
         style="display:inline;fill:none;fill-opacity:1;stroke:#ffffff;stroke-width:1.5;stroke-linecap:butt;stroke-linejoin:round;stroke-miterlimit:4;stroke-dasharray:none;stroke-opacity:1"
         d="m 113.52562,136.68389 -16.247375,5.2791 8.193265,-11.28765 m 0,0 c 3.24885,1.0475 6.24268,3.28711 8.05411,6.00856" />
      <path
         id="path1809"
         style="display:inline;fill:#ffffff;fill-opacity:1;stroke:#ffffff;stroke-width:1.5;stroke-linecap:butt;stroke-linejoin:round;stroke-miterlimit:4;stroke-dasharray:none;stroke-opacity:1"
         d="m 105.47151,130.67534 -8.193265,11.28765 -0.007,-10.97161 m 0,0 c 2.54477,-1.2349 5.463185,-1.19862 8.200565,-0.31604" />
      <path
         id="path1813"
         style="display:inline;fill:none;fill-opacity:1;stroke:#ffffff;stroke-width:1.5;stroke-linecap:butt;stroke-linejoin:round;stroke-miterlimit:4;stroke-dasharray:none;stroke-opacity:1"
         d="m 97.270945,130.99138 0.007,10.97161 -4.290789,-5.8895 m 0,0 c 0.274896,-1.16237 0.770477,-2.23344 1.422304,-2.93879 0.868622,-0.93996 1.834494,-1.6451 2.861185,-2.14332" />
      <path
         id="path1817"
         style="display:inline;fill:#ffffff;fill-opacity:1;stroke:#ffffff;stroke-width:1.5;stroke-linecap:butt;stroke-linejoin:round;stroke-miterlimit:4;stroke-dasharray:none;stroke-opacity:1"
         d="m 93.266834,140.66125 4.011411,1.30174 -4.290789,-5.8895 m 0.279378,4.58776 c -0.618363,-1.22971 -0.656177,-2.99451 -0.279378,-4.58776" />
      <path
         id="path1821"
         style="display:inline;fill:none;fill-opacity:1;stroke:#ffffff;stroke-width:1.5;stroke-linecap:butt;stroke-linejoin:round;stroke-miterlimit:4;stroke-dasharray:none;stroke-opacity:1"
         d="m 97.278245,141.96299 -4.011411,-1.30174 m 4.011411,1.30174 c -2.092541,0.67991 -3.36711,-0.0205 -4.011411,-1.30174" />
      <path
         id="path1833"
         style="fill:none;fill-opacity:1;stroke:#ffffff;stroke-width:1.5;stroke-linecap:butt;stroke-linejoin:round;stroke-miterlimit:4;stroke-dasharray:none;stroke-opacity:1"
         d="m 80.514087,165.04202 16.764158,-23.07903 1e-5,25.84704 m 0.002,-3.2e-4 c -5.744235,0.99334 -11.613834,-0.11257 -16.766023,-2.76769" />
    </g>
  </g>
</svg>
