999
"DXF R12 Output" (www.mydxf.blogspot.com)
 0 
SECTION
 2 
HEADER
 9 
$ACADVER
 1 
AC1009
 9 
$EXTMIN
 10 
 0 
 20 
 0 
 9 
$EXTMAX
 10 
 8.5 
 20 
 11 
 0 
ENDSEC
 0 
SECTION
 2 
ENTITIES
0
LINE
8
Layer 1
10
97.278200
20
141.963000
11
97.278200
21
141.963000
0
LINE
8
Layer 1
10
126.702000
20
182.447000
11
123.622554
21
184.940017
0
LINE
8
Layer 1
10
123.622554
20
184.940017
11
120.334436
21
187.190971
0
LINE
8
Layer 1
10
120.334436
20
187.190971
11
116.848725
21
189.180987
0
LINE
8
Layer 1
10
116.848725
20
189.180987
11
113.176500
21
190.891190
0
LINE
8
Layer 1
10
113.176500
20
190.891190
11
109.327464
21
192.313230
0
LINE
8
Layer 1
10
109.327464
20
192.313230
11
105.378401
21
193.424658
0
LINE
8
Layer 1
10
105.378401
20
193.424658
11
101.353913
21
194.221674
0
LINE
8
Layer 1
10
101.353913
20
194.221674
11
97.278600
21
194.700480
0
LINE
8
Layer 1
10
97.278600
20
194.700480
11
97.278590
21
141.962580
0
LINE
8
Layer 1
10
97.278590
20
141.962580
11
126.701890
21
182.446980
0
LINE
8
Layer 1
10
126.702000
20
182.447000
11
97.278700
21
141.962600
0
LINE
8
Layer 1
10
97.278700
20
141.962600
11
142.366000
21
156.611100
0
LINE
8
Layer 1
10
142.366000
20
156.611100
11
141.332438
21
160.280871
0
LINE
8
Layer 1
10
141.332438
20
160.280871
11
140.013795
21
163.860546
0
LINE
8
Layer 1
10
140.013795
20
163.860546
11
138.420549
21
167.332274
0
LINE
8
Layer 1
10
138.420549
20
167.332274
11
136.563182
21
170.678208
0
LINE
8
Layer 1
10
136.563182
20
170.678208
11
134.452174
21
173.880496
0
LINE
8
Layer 1
10
134.452174
20
173.880496
11
132.098004
21
176.921290
0
LINE
8
Layer 1
10
132.098004
20
176.921290
11
129.511153
21
179.782741
0
LINE
8
Layer 1
10
129.511153
20
179.782741
11
126.702100
21
182.447000
0
LINE
8
Layer 1
10
142.366000
20
156.611000
11
97.278700
21
141.962500
0
LINE
8
Layer 1
10
97.278700
20
141.962500
11
140.000500
21
128.081300
0
LINE
8
Layer 1
10
140.000500
20
128.081310
11
140.000500
21
128.081310
0
LINE
8
Layer 1
10
140.000500
20
128.081310
11
141.351348
21
131.613114
0
LINE
8
Layer 1
10
141.351348
20
131.613114
11
142.383568
21
135.183965
0
LINE
8
Layer 1
10
142.383568
20
135.183965
11
143.105737
21
138.779253
0
LINE
8
Layer 1
10
143.105737
20
138.779253
11
143.526430
21
142.384372
0
LINE
8
Layer 1
10
143.526430
20
142.384372
11
143.654224
21
145.984715
0
LINE
8
Layer 1
10
143.654224
20
145.984715
11
143.497695
21
149.565674
0
LINE
8
Layer 1
10
143.497695
20
149.565674
11
143.065418
21
153.112641
0
LINE
8
Layer 1
10
143.065418
20
153.112641
11
142.365970
21
156.611010
0
LINE
8
Layer 1
10
140.000000
20
128.082000
11
97.278200
21
141.963200
0
LINE
8
Layer 1
10
97.278200
20
141.963200
11
122.016900
21
107.904500
0
LINE
8
Layer 1
10
122.016910
20
107.904500
11
124.875785
21
109.722153
0
LINE
8
Layer 1
10
124.875785
20
109.722153
11
127.593151
21
111.760981
0
LINE
8
Layer 1
10
127.593151
20
111.760981
11
130.152480
21
114.011044
0
LINE
8
Layer 1
10
130.152480
20
114.011044
11
132.537241
21
116.462402
0
LINE
8
Layer 1
10
132.537241
20
116.462402
11
134.730905
21
119.105117
0
LINE
8
Layer 1
10
134.730905
20
119.105117
11
136.716940
21
121.929248
0
LINE
8
Layer 1
10
136.716940
20
121.929248
11
138.478819
21
124.924855
0
LINE
8
Layer 1
10
138.478819
20
124.924855
11
140.000010
21
128.082000
0
LINE
8
Layer 1
10
122.017000
20
107.904000
11
97.278300
21
141.962700
0
LINE
8
Layer 1
10
97.278300
20
141.962700
11
97.278260
21
102.369000
0
LINE
8
Layer 1
10
97.278260
20
102.369000
11
100.517550
21
102.173165
0
LINE
8
Layer 1
10
100.517550
20
102.173165
11
103.743579
21
102.248236
0
LINE
8
Layer 1
10
103.743579
20
102.248236
11
106.941985
21
102.585576
0
LINE
8
Layer 1
10
106.941985
20
102.585576
11
110.098405
21
103.176549
0
LINE
8
Layer 1
10
110.098405
20
103.176549
11
113.198475
21
104.012518
0
LINE
8
Layer 1
10
113.198475
20
104.012518
11
116.227833
21
105.084847
0
LINE
8
Layer 1
10
116.227833
20
105.084847
11
119.172116
21
106.384900
0
LINE
8
Layer 1
10
119.172116
20
106.384900
11
122.016960
21
107.904040
0
LINE
8
Layer 1
10
75.629500
20
112.178000
11
97.278200
21
141.963000
0
LINE
8
Layer 1
10
97.278200
20
141.963000
11
97.278160
21
102.369300
0
LINE
8
Layer 1
10
75.629460
20
112.177990
11
77.855604
21
110.244657
0
LINE
8
Layer 1
10
77.855604
20
110.244657
11
80.241397
21
108.489557
0
LINE
8
Layer 1
10
80.241397
20
108.489557
11
82.777524
21
106.927677
0
LINE
8
Layer 1
10
82.777524
20
106.927677
11
85.454670
21
105.574000
0
LINE
8
Layer 1
10
85.454670
20
105.574000
11
88.369749
21
104.392828
0
LINE
8
Layer 1
10
88.369749
20
104.392828
11
91.319526
21
103.469499
0
LINE
8
Layer 1
10
91.319526
20
103.469499
11
94.292750
21
102.797245
0
LINE
8
Layer 1
10
94.292750
20
102.797245
11
97.278170
21
102.369300
0
LINE
8
Layer 1
10
64.841800
20
131.424000
11
97.278200
21
141.963000
0
LINE
8
Layer 1
10
97.278200
20
141.963000
11
75.629500
21
112.178000
0
LINE
8
Layer 1
10
64.841800
20
131.424000
11
65.496247
21
128.722516
0
LINE
8
Layer 1
10
65.496247
20
128.722516
11
66.365621
21
126.078764
0
LINE
8
Layer 1
10
66.365621
20
126.078764
11
67.441604
21
123.506127
0
LINE
8
Layer 1
10
67.441604
20
123.506127
11
68.715876
21
121.017985
0
LINE
8
Layer 1
10
68.715876
20
121.017985
11
70.180120
21
118.627720
0
LINE
8
Layer 1
10
70.180120
20
118.627720
11
71.826018
21
116.348713
0
LINE
8
Layer 1
10
71.826018
20
116.348713
11
73.645251
21
114.194346
0
LINE
8
Layer 1
10
73.645251
20
114.194346
11
75.629500
21
112.178000
0
LINE
8
Layer 1
10
67.377000
20
151.679000
11
97.278300
21
141.963490
0
LINE
8
Layer 1
10
97.278300
20
141.963490
11
64.841900
21
131.424490
0
LINE
8
Layer 1
10
67.377070
20
151.678990
11
66.295512
21
149.196454
0
LINE
8
Layer 1
10
66.295512
20
149.196454
11
65.445149
21
146.679375
0
LINE
8
Layer 1
10
65.445149
20
146.679375
11
64.819621
21
144.137983
0
LINE
8
Layer 1
10
64.819621
20
144.137983
11
64.412569
21
141.582513
0
LINE
8
Layer 1
10
64.412569
20
141.582513
11
64.217631
21
139.023195
0
LINE
8
Layer 1
10
64.217631
20
139.023195
11
64.228447
21
136.470264
0
LINE
8
Layer 1
10
64.228447
20
136.470264
11
64.438657
21
133.933951
0
LINE
8
Layer 1
10
64.438657
20
133.933951
11
64.841900
21
131.424490
0
LINE
8
Layer 1
10
80.514100
20
165.042000
11
97.278300
21
141.963000
0
LINE
8
Layer 1
10
97.278300
20
141.963000
11
67.377000
21
151.678510
0
LINE
8
Layer 1
10
80.514100
20
165.042010
11
78.464978
21
163.880995
0
LINE
8
Layer 1
10
78.464978
20
163.880995
11
76.507115
21
162.558098
0
LINE
8
Layer 1
10
76.507115
20
162.558098
11
74.653021
21
161.081486
0
LINE
8
Layer 1
10
74.653021
20
161.081486
11
72.915208
21
159.459325
0
LINE
8
Layer 1
10
72.915208
20
159.459325
11
71.306187
21
157.699781
0
LINE
8
Layer 1
10
71.306187
20
157.699781
11
69.838472
21
155.811019
0
LINE
8
Layer 1
10
69.838472
20
155.811019
11
68.524572
21
153.801207
0
LINE
8
Layer 1
10
68.524572
20
153.801207
11
67.377000
21
151.678510
0
LINE
8
Layer 1
10
67.377000
20
151.678510
11
67.377000
21
151.678510
0
LINE
8
Layer 1
10
110.735000
20
160.476000
11
109.410900
21
161.833642
0
LINE
8
Layer 1
10
109.410900
20
161.833642
11
107.978324
21
163.077641
0
LINE
8
Layer 1
10
107.978324
20
163.077641
11
106.445644
21
164.196092
0
LINE
8
Layer 1
10
106.445644
20
164.196092
11
104.821230
21
165.177090
0
LINE
8
Layer 1
10
104.821230
20
165.177090
11
102.974674
21
166.086574
0
LINE
8
Layer 1
10
102.974674
20
166.086574
11
101.097690
21
166.825526
0
LINE
8
Layer 1
10
101.097690
20
166.825526
11
99.197299
21
167.398528
0
LINE
8
Layer 1
10
99.197299
20
167.398528
11
97.280520
21
167.810160
0
LINE
8
Layer 1
10
110.735000
20
160.476000
11
97.278700
21
141.963400
0
LINE
8
Layer 1
10
97.278700
20
141.963400
11
116.337700
21
148.150660
0
LINE
8
Layer 1
10
116.337700
20
148.150670
11
115.710345
21
151.488698
0
LINE
8
Layer 1
10
115.710345
20
151.488698
11
114.532846
21
154.704809
0
LINE
8
Layer 1
10
114.532846
20
154.704809
11
112.857117
21
157.725175
0
LINE
8
Layer 1
10
112.857117
20
157.725175
11
110.735070
21
160.475970
0
LINE
8
Layer 1
10
116.337000
20
148.150000
11
97.278000
21
141.962740
0
LINE
8
Layer 1
10
97.278000
20
141.962740
11
113.525400
21
136.683640
0
LINE
8
Layer 1
10
113.525650
20
136.684030
11
115.023764
21
139.436808
0
LINE
8
Layer 1
10
115.023764
20
139.436808
11
115.969216
21
142.297364
0
LINE
8
Layer 1
10
115.969216
20
142.297364
11
116.395723
21
145.217753
0
LINE
8
Layer 1
10
116.395723
20
145.217753
11
116.337000
21
148.150030
0
LINE
8
Layer 1
10
113.526000
20
136.684000
11
97.278600
21
141.963100
0
LINE
8
Layer 1
10
97.278600
20
141.963100
11
105.471870
21
130.675500
0
LINE
8
Layer 1
10
105.471870
20
130.675500
11
107.846201
21
131.673548
0
LINE
8
Layer 1
10
107.846201
20
131.673548
11
110.037958
21
133.052049
0
LINE
8
Layer 1
10
110.037958
20
133.052049
11
111.960198
21
134.744415
0
LINE
8
Layer 1
10
111.960198
20
134.744415
11
113.525980
21
136.684060
0
LINE
8
Layer 1
10
105.472000
20
130.675000
11
97.278730
21
141.962600
0
LINE
8
Layer 1
10
97.278730
20
141.962600
11
97.271730
21
130.991000
0
LINE
8
Layer 1
10
97.271730
20
130.991000
11
99.241700
21
130.296533
0
LINE
8
Layer 1
10
99.241700
20
130.296533
11
101.299785
21
130.038925
0
LINE
8
Layer 1
10
101.299785
20
130.038925
11
103.393983
21
130.178345
0
LINE
8
Layer 1
10
103.393983
20
130.178345
11
105.472290
21
130.674960
0
LINE
8
Layer 1
10
97.270900
20
130.991000
11
97.277900
21
141.962600
0
LINE
8
Layer 1
10
97.277900
20
141.962600
11
92.987110
21
136.073100
0
LINE
8
Layer 1
10
92.987110
20
136.073100
11
93.556912
21
134.432322
0
LINE
8
Layer 1
10
93.556912
20
134.432322
11
94.409410
21
133.134310
0
LINE
8
Layer 1
10
94.409410
20
133.134310
11
95.780725
21
131.896997
0
LINE
8
Layer 1
10
95.780725
20
131.896997
11
97.270590
21
130.990990
0
LINE
8
Layer 1
10
93.266800
20
140.661000
11
97.278210
21
141.962740
0
LINE
8
Layer 1
10
97.278210
20
141.962740
11
92.987420
21
136.073240
0
LINE
8
Layer 1
10
93.266798
20
140.661000
11
92.909286
21
139.649429
0
LINE
8
Layer 1
10
92.909286
20
139.649429
11
92.753923
21
138.503447
0
LINE
8
Layer 1
10
92.753923
20
138.503447
11
92.785153
21
137.289302
0
LINE
8
Layer 1
10
92.785153
20
137.289302
11
92.987420
21
136.073240
0
LINE
8
Layer 1
10
97.278200
20
141.963000
11
93.266790
21
140.661260
0
LINE
8
Layer 1
10
97.278200
20
141.963000
11
95.859232
21
142.226615
0
LINE
8
Layer 1
10
95.859232
20
142.226615
11
94.729405
21
142.047561
0
LINE
8
Layer 1
10
94.729405
20
142.047561
11
93.871123
21
141.500792
0
LINE
8
Layer 1
10
93.871123
20
141.500792
11
93.266790
21
140.661260
0
LINE
8
Layer 1
10
80.514100
20
165.042000
11
97.278300
21
141.963000
0
LINE
8
Layer 1
10
97.278300
20
141.963000
11
97.278310
21
167.810000
0
LINE
8
Layer 1
10
97.280310
20
167.809680
11
95.121994
21
168.084854
0
LINE
8
Layer 1
10
95.121994
20
168.084854
11
92.961804
21
168.169670
0
LINE
8
Layer 1
10
92.961804
20
168.169670
11
90.809613
21
168.070572
0
LINE
8
Layer 1
10
90.809613
20
168.070572
11
88.675299
21
167.794008
0
LINE
8
Layer 1
10
88.675299
20
167.794008
11
86.568736
21
167.346421
0
LINE
8
Layer 1
10
86.568736
20
167.346421
11
84.499800
21
166.734259
0
LINE
8
Layer 1
10
84.499800
20
166.734259
11
82.478366
21
165.963966
0
LINE
8
Layer 1
10
82.478366
20
165.963966
11
80.514310
21
165.041990
 0 
ENDSEC
 0 
EOF